PathFileType	4	(X/Y/Z)	Patient4_TMGait_0pt7_02_left_37.trc.trc
DataRate	CameraRate	NumFrames	NumMarkers	Units	OrigDataRate	OrigDataStartFrame	OrigNumFrames
86.419753086420	86.419753086420	4	33	mm	86.419753086420	124	       141
Frame#	Time	Sacral			L.Shoulder			Chest			R.Shoulder			Neck			R.ASIS			L.ASIS			R.Thigh.Superior			R.Thigh.Lateral			R.Thigh.Inferior			R.Patella			L.Thigh.Superior			L.Thigh.Lateral			L.Thigh.Inferior			L.Patella			L.Shank.Superior			L.Shank.Lateral			L.Shank.Inferior			R.Shank.Superior			R.Shank.Lateral			R.Shank.Inferior			R.Heel			R.Midfoot.Superior			R.Midfoot.Lateral			R.Toe			L.Heel			L.Midfoot.Lateral			L.Midfoot.Superior			L.Toe			L.Elbow			L.Wrist			R.Elbow			R.Wrist			
		X1	Y1	Z1	X2	Y2	Z2	X3	Y3	Z3	X4	Y4	Z4	X5	Y5	Z5	X6	Y6	Z6	X7	Y7	Z7	X8	Y8	Z8	X9	Y9	Z9	X10	Y10	Z10	X11	Y11	Z11	X12	Y12	Z12	X13	Y13	Z13	X14	Y14	Z14	X15	Y15	Z15	X16	Y16	Z16	X17	Y17	Z17	X18	Y18	Z18	X19	Y19	Z19	X20	Y20	Z20	X21	Y21	Z21	X22	Y22	Z22	X23	Y23	Z23	X24	Y24	Z24	X25	Y25	Z25	X26	Y26	Z26	X27	Y27	Z27	X28	Y28	Z28	X29	Y29	Z29	X30	Y30	Z30	X31	Y31	Z31	X32	Y32	Z32	X33	Y33	Z33	

124	43.743285714286	780.199993090255	1014.360260356019	486.398403666409	1006.384177686626	1390.849161080094	264.377335714004	1108.570775487775	1321.492122978326	426.099307242550	1049.761581150669	1426.063308444043	592.692649798982	1023.322205699488	1465.038620258165	412.730594828649	992.249967598705	920.826693195041	606.257141391717	984.596894860794	931.105454110221	331.197222764471	986.172620231783	708.859457301927	581.417195678338	877.897536833773	621.263727135275	640.730183176666	938.382365143354	551.689703720742	561.728885667305	915.276977932793	465.321157076989	565.538530656596	1053.813206444256	766.527471488356	386.059226087467	1028.059566826934	639.528548203241	297.321097070229	1120.898450012505	582.703088924015	377.688922128889	1146.513712404174	510.225130170544	375.065300881037	1122.095225788845	435.320134987255	357.748706322228	1047.920714509483	316.537138305391	291.381591673119	1110.232312420612	205.449774174749	356.233787359244	868.918230609414	384.914525431040	574.149109037078	776.939160875854	301.195749587580	639.734578058113	793.284167343668	199.271906067278	576.611785410335	628.241908636185	49.478463198233	553.622947090137	802.880499532410	97.745901630867	586.252151557220	712.451525531810	39.984264393167	626.404698358567	920.593162496146	38.452629969093	614.003108338669	997.316928312287	40.148686817628	375.280412719357	1081.819325067811	37.609203243445	305.998473173347	1157.590019110944	104.329184042888	340.763513641876	1290.069570527066	57.374392979793	332.790822259993	837.691716104229	1072.517749266586	198.173426177488	783.944734519331	819.389170599184	237.951906385236	1168.066372718702	1121.206790628418	717.234829542988	1332.439367029165	1243.130432464543	582.386099153681	
125	43.754857142857	781.138139955368	1012.261480554678	483.598501828570	1006.891846865669	1389.137237358504	261.816687662330	1109.050504505598	1320.061604254775	423.733222194096	1049.541551208309	1424.286482718404	590.348549400089	1023.484312409137	1463.459966937559	410.287661350310	993.568977975443	919.101956828320	603.869792691669	986.049973985765	928.951529861355	329.058031946618	986.664416002639	706.894773721606	579.623336231777	877.624123148861	619.724917397889	638.861586697746	938.025186401533	549.636718157691	560.305160275389	914.308527537869	462.569484811031	564.248442151446	1055.490199696016	763.641180498958	383.309300326008	1026.803310004372	636.594567767327	295.415351806205	1120.342834094214	579.529507696324	374.789596250856	1144.619873937585	507.082550268975	373.252922865773	1120.619733993828	431.978757107936	356.392530167833	1046.327147362275	313.122101015866	290.568172191864	1107.845280493254	202.327985252361	356.235005228128	866.209719411542	383.100598180561	572.956569111621	772.782126423577	301.196702661856	639.046847654206	787.313103529042	198.868918760116	576.292664595020	620.151662851002	50.844843576963	553.914550782472	795.239784030944	97.811365791078	586.393826779256	704.388449816046	40.516970657656	626.554578180370	912.436369079825	38.350540845611	613.944077116558	993.600534608525	38.473411970945	376.300031962179	1077.682110845043	35.867554739237	306.392016278503	1154.036651665747	101.485373502162	341.367527466787	1286.239099613108	53.566475817158	332.344600946109	839.392616956406	1070.091622363786	195.831992337640	787.409014128755	816.437090061684	235.686466352779	1170.892882652136	1120.087267473910	713.246573134467	1332.077040428274	1246.051611010696	578.246030515952	
126	43.766428571429	781.901509668784	1010.532183592190	480.764309303488	1007.435659172969	1387.679847354193	259.140184993307	1109.591707262932	1318.823777182926	421.206989074254	1049.520078554188	1422.710256048893	587.940331024621	1023.852639930621	1462.146471748099	407.708577031144	994.745677668780	917.688236115341	601.338466010244	987.364456132841	927.152677649862	326.722387225668	987.541611766325	705.292641137686	577.700627319816	878.032318373991	618.308502263144	636.871668054581	938.605460541627	547.809420601101	558.796030322591	914.502030813343	459.771939331353	563.032288487174	1057.478130153487	761.760114322856	380.526376338848	1025.942509277640	634.453632023430	293.781609876823	1120.314218051344	577.256736493575	371.950202875354	1143.351538517570	504.659088287934	371.692143213949	1119.442462968802	429.201425747628	355.376205867893	1044.458846936280	310.766923477569	289.869257969628	1104.288151101838	199.875718714767	356.361477109686	864.393884522809	381.424179662855	571.782229739588	769.326207549472	301.580081496750	638.315774686675	781.912365790092	198.814661232967	576.010483430200	612.285769082469	53.118321583285	554.251646191309	787.995470086105	97.970754543751	586.547127541275	696.494376212839	41.515760504269	626.704751212114	904.332367245395	38.110777915836	613.779914206318	987.831777611153	37.730018102675	377.094460647651	1071.553772161647	34.975462732204	306.645304641899	1148.598787203530	99.346493743262	341.961352773434	1280.466062287901	50.184431654569	331.915836003926	841.533875560471	1067.628296734635	193.410591998200	791.848201626971	813.292116698309	233.004402768423	1172.522279363200	1118.442288865642	709.526428019508	1331.625262919378	1247.351105978805	574.546473615440	
127	43.778000000000	782.487154898933	1009.283258573040	477.930863206461	1008.023742874804	1386.579098283968	256.394624688258	1110.187212409094	1317.843997798372	418.554674695247	1049.753909049612	1421.438720611823	585.480762031321	1024.445831962839	1461.187720511901	405.036428036504	995.709135083617	916.698775349153	598.696322790740	988.512241715281	925.797191343486	324.185962550781	988.768476221679	704.162559562267	575.669696728469	879.158123388765	617.081057384443	634.805085207833	940.189200891368	546.295485191058	557.242533968099	915.943894047508	457.017002501474	561.988241996604	1059.610825975064	760.844559338409	377.692421186088	1025.299969319946	633.066305535930	292.363187396349	1120.531882987352	575.772510618902	369.166812306173	1142.458133349872	502.904103351536	370.312733382661	1118.360744281823	426.995475542776	354.608451847407	1042.291677292832	309.327481775595	289.228017079493	1099.800142362867	198.050885123867	356.546362114761	863.568658630628	379.968724114191	570.683929693673	766.660055316640	302.445294945254	637.550062200848	777.189592317505	199.211931050308	575.775626858782	604.750054627713	56.496227254705	554.598990031348	781.242404389258	98.274772801928	586.698821690256	688.833145675689	43.123678287499	626.829420024041	896.302046169832	37.695197997390	613.493724022270	980.583773887057	37.648803285872	377.632096651566	1064.035000257477	34.714079678051	306.767930044372	1141.772443652021	97.863982370531	342.496452592519	1273.311239679320	47.365416994771	331.553522797619	844.071182919054	1065.274829141810	190.938892482455	797.249210456347	810.113575946178	229.891586546465	1172.929614500859	1116.350233673494	706.107118966979	1331.175418157004	1246.986546281668	571.258037882736	
